<svg width="354" height="137" viewBox="0 0 354 137" fill="none" xmlns="http://www.w3.org/2000/svg">
<path fill-rule="evenodd" clip-rule="evenodd" d="M158.882 60.8692C157.641 59.9617 156.606 58.8682 155.778 57.5889C154.595 58.7053 153.391 59.688 152.166 60.537C150.038 62.0432 147.598 62.7963 144.848 62.7963C142.587 62.7963 140.879 62.1539 139.726 60.8692C138.573 59.5402 137.996 57.6352 137.996 55.1544C137.996 53.914 138.307 51.6989 138.928 48.5093C139.504 45.7184 139.792 43.7913 139.792 42.7281C139.792 42.0192 139.549 41.6648 139.061 41.6648C138.484 41.6648 137.664 42.418 136.599 43.9242C135.535 45.3861 134.47 47.3353 133.406 49.7719C132.342 52.2084 131.477 54.7778 130.811 57.4802C129.969 61.0243 127.884 62.7963 124.558 62.7963C123.227 62.7963 122.34 62.3311 121.897 61.4008C121.627 60.7422 121.449 59.7398 121.361 58.3934C120.185 59.2981 118.919 60.0791 117.562 60.7363C114.679 62.1096 111.885 62.7963 109.179 62.7963C104.833 62.7963 101.44 61.578 99.001 59.1415C98.5852 58.7108 98.2056 58.2568 97.862 57.7795C94.4895 61.124 91.2968 62.7963 88.284 62.7963C85.4012 62.7963 83.2945 61.7774 81.964 59.7395C81.6425 59.2302 81.3612 58.6793 81.1201 58.0868C80.1304 58.9998 79.1053 59.8165 78.0447 60.537C75.8715 62.0432 73.3878 62.7963 70.5937 62.7963C68.4649 62.7963 66.8904 61.9767 65.8704 60.3376C64.8946 58.6985 64.4068 56.3948 64.4068 53.4267C63.6528 56.4391 62.5219 58.7649 61.0139 60.404C59.506 61.9989 57.8872 62.7963 56.1575 62.7963C54.1617 62.7963 52.5208 61.8881 51.2346 60.0718C50.8468 59.4908 50.5196 58.8667 50.2529 58.1993C49.3013 59.067 48.3171 59.8462 47.3002 60.537C45.127 62.0432 42.6433 62.7963 39.8492 62.7963C37.5873 62.7963 35.8798 62.1539 34.7267 60.8692C33.5736 59.5402 32.997 57.6352 32.997 55.1544C32.997 53.914 33.3075 51.6989 33.9284 48.5093C34.505 45.7184 34.7932 43.7913 34.7932 42.7281C34.7932 42.0192 34.5493 41.6648 34.0615 41.6648C33.4849 41.6648 32.6644 42.418 31.6 43.9242C30.5356 45.3861 29.4711 47.3353 28.4067 49.7719C27.3423 52.2084 26.4775 54.7778 25.8122 57.4802C25.3243 59.6066 24.7478 61.0243 24.0825 61.7331C23.4616 62.4419 22.4415 62.7963 21.0223 62.7963C19.5587 62.7963 18.45 62.1096 17.696 60.7363C16.9864 59.3187 16.6316 57.6131 16.6316 55.6196C16.6316 53.9361 16.8533 51.4996 17.2968 48.3099C17.6516 45.4747 17.829 43.6141 17.829 42.7281C17.829 42.0192 17.5851 41.6648 17.0972 41.6648C16.432 41.6648 15.5893 42.4622 14.5693 44.0571C13.5492 45.6519 12.5513 47.6897 11.5756 50.1706C10.6442 52.6514 9.89024 55.088 9.31368 57.4802C8.82582 59.5623 8.24926 60.9799 7.58399 61.7331C6.96308 62.4419 5.96519 62.7963 4.59031 62.7963C2.90498 62.7963 1.70751 61.9103 0.997894 60.1382C0.332631 58.3662 0 55.531 0 51.6325C0 45.8734 0.820491 40.4023 2.46147 35.2191C2.86063 33.9344 3.50372 33.004 4.39073 32.4281C5.3221 31.8079 6.60828 31.4978 8.24926 31.4978C9.13627 31.4978 9.75719 31.6086 10.112 31.8301C10.4668 32.0516 10.6442 32.4724 10.6442 33.0926C10.6442 33.8015 10.3116 35.3963 9.64631 37.8771C9.2028 39.6492 8.84799 41.1997 8.58189 42.5287C8.31578 43.8134 8.09403 45.4304 7.91663 47.3796C9.1141 43.9242 10.5333 41.0003 12.1743 38.6081C13.8596 36.2158 15.5671 34.4438 17.2968 33.292C19.0709 32.0959 20.734 31.4978 22.2863 31.4978C23.8386 31.4978 24.9252 31.8522 25.5461 32.561C26.2113 33.2698 26.544 34.3552 26.544 35.8171C26.544 37.2348 26.1226 39.8042 25.28 43.5255C24.9252 45.1203 24.6812 46.3164 24.5482 47.1138C26.7657 41.6648 29.2272 37.6999 31.9326 35.2191C34.638 32.7382 37.166 31.4978 39.5166 31.4978C42.3994 31.4978 43.8408 32.9376 43.8408 35.8171C43.8408 37.5449 43.353 40.6681 42.3772 45.1867C41.5346 49.0409 41.1132 51.5882 41.1132 52.8286C41.1132 54.6006 41.7563 55.4867 43.0425 55.4867C43.9295 55.4867 44.9718 54.9551 46.1692 53.8918C47.0515 53.105 48.1353 51.9826 49.4206 50.5248C49.5082 48.2158 49.7137 46.0599 50.0371 44.0571C50.4806 41.2661 51.2124 38.3201 52.2325 35.2191C52.676 33.8901 53.2969 32.9376 54.0952 32.3617C54.8935 31.7858 56.1575 31.4978 57.8872 31.4978C58.8629 31.4978 59.5282 31.6529 59.883 31.963C60.2822 32.2731 60.4817 32.7382 60.4817 33.3584C60.4817 33.7129 60.2378 34.909 59.7499 36.9468C59.3064 38.5859 58.9516 40.07 58.6855 41.399C57.7985 46.0506 57.355 49.1517 57.355 50.7022C57.355 51.6325 57.4659 52.297 57.6876 52.6957C57.9094 53.0501 58.2642 53.2273 58.752 53.2273C59.4173 53.2273 60.2378 52.5628 61.2135 51.2338C62.2336 49.9048 63.298 47.8891 64.4068 45.1867C65.5599 42.4844 66.6687 39.1618 67.7331 35.2191C68.0879 33.8901 68.6201 32.9376 69.3297 32.3617C70.0837 31.7858 71.1925 31.4978 72.656 31.4978C73.6761 31.4978 74.3857 31.6307 74.7849 31.8965C75.184 32.118 75.3836 32.561 75.3836 33.2255C75.3836 34.3331 74.8292 37.3677 73.7205 42.3293C72.4786 47.9998 71.8577 51.4996 71.8577 52.8286C71.8577 53.6703 72.0351 54.3348 72.3899 54.8222C72.7447 55.2652 73.2104 55.4867 73.787 55.4867C74.674 55.4867 75.7162 54.9551 76.9137 53.8918C77.7702 53.128 78.8166 52.048 80.0528 50.652C80.1174 48.825 80.3553 46.6045 80.7665 43.9906C81.2987 40.8453 81.964 37.9214 82.7623 35.2191C83.1615 33.8015 83.6937 32.8268 84.3589 32.2952C85.0242 31.7636 86.0886 31.4978 87.5522 31.4978C89.8141 31.4978 90.945 32.2509 90.945 33.7572C90.945 34.8647 90.5237 37.4341 89.681 41.4655C88.6166 46.3386 88.0844 49.639 88.0844 51.3667C88.0844 52.6957 88.2618 53.7146 88.6166 54.4234C88.9714 55.1323 89.5702 55.4867 90.4128 55.4867C91.2111 55.4867 92.209 54.9329 93.4065 53.8254C94.0158 53.2619 94.7284 52.5321 95.5443 51.6361C95.4538 50.9111 95.4085 50.1568 95.4085 49.3732C95.4085 45.7848 96.1182 42.6394 97.5374 39.9371C98.9566 37.2348 100.797 35.1526 103.059 33.6907C105.321 32.2288 107.694 31.4978 110.177 31.4978C112.617 31.4978 114.502 32.2288 115.832 33.6907C117.207 35.1083 117.894 36.9468 117.894 39.2061C117.894 41.0668 117.473 42.6395 116.63 43.9242C115.832 45.2089 114.768 45.8513 113.437 45.8513C112.594 45.8513 111.907 45.6519 111.375 45.2532C110.887 44.8545 110.643 44.3007 110.643 43.5919C110.643 43.2818 110.687 42.9274 110.776 42.5287C110.865 42.13 110.931 41.842 110.976 41.6648C111.197 41.0003 111.308 40.3801 111.308 39.8042C111.308 39.2283 111.153 38.7853 110.843 38.4752C110.577 38.1651 110.177 38.01 109.645 38.01C108.625 38.01 107.672 38.4752 106.785 39.4055C105.898 40.2915 105.188 41.5098 104.656 43.0603C104.123 44.6108 103.857 46.3164 103.857 48.177C103.857 53.3159 106.097 55.8854 110.577 55.8854C112.395 55.8854 114.346 55.2873 116.431 54.0912C118.115 53.1099 119.771 51.7544 121.4 50.0246L121.431 47.5125C121.431 40.6902 122.119 33.58 123.494 26.1817C124.913 18.7835 126.975 12.5814 129.68 7.57542C132.43 2.52514 135.712 0 139.526 0C141.567 0 143.207 0.886015 144.449 2.65804C145.735 4.38577 146.379 6.64511 146.379 9.43606C146.379 13.9104 145.07 18.562 142.454 23.3908C139.837 28.1753 135.579 33.7793 129.68 40.2029C129.547 42.5065 129.481 44.8766 129.481 47.3132C130.944 43.5476 132.563 40.4909 134.337 38.1429C136.156 35.7507 137.93 34.0451 139.659 33.0262C141.433 32.0073 143.052 31.4978 144.516 31.4978C147.399 31.4978 148.84 32.9376 148.84 35.8171C148.84 37.5449 148.352 40.6681 147.376 45.1867C146.534 49.0409 146.112 51.5882 146.112 52.8286C146.112 54.6006 146.756 55.4867 148.042 55.4867C148.929 55.4867 149.971 54.9551 151.168 53.8918C151.845 53.2885 152.64 52.4881 153.553 51.4904C153.425 50.6288 153.361 49.7459 153.361 48.8416C153.361 45.4747 153.982 42.4844 155.223 39.8707C156.51 37.2126 158.239 35.1526 160.412 33.6907C162.586 32.1845 165.025 31.4314 167.73 31.4314C170.347 31.4314 172.587 32.0959 174.45 33.4249C176.312 34.7096 177.709 36.4152 178.641 38.5416C179.572 40.6681 180.038 42.9496 180.038 45.3861C180.038 48.753 179.395 51.7654 178.108 54.4234C176.822 57.0372 175.07 59.0972 172.853 60.6034C170.68 62.0653 168.263 62.7963 165.602 62.7963C162.985 62.7963 160.745 62.1539 158.882 60.8692ZM135.468 10.0341C136.444 7.73048 137.331 6.57866 138.129 6.57866C138.706 6.57866 139.149 6.95522 139.46 7.70833C139.77 8.46144 139.926 9.54681 139.926 10.9644C139.926 14.0655 139.016 17.5209 137.198 21.3308C135.424 25.1407 133.162 28.6626 130.412 31.8965C130.989 27.3336 131.721 23.125 132.608 19.2708C133.539 15.3724 134.493 12.2935 135.468 10.0341ZM166.333 55.6196C167.841 55.6196 169.105 54.8 170.125 53.1609C171.19 51.5217 171.722 49.1295 171.722 45.9842C171.722 43.5476 171.278 41.7091 170.391 40.4687C169.504 39.2283 168.44 38.6081 167.198 38.6081C165.602 38.6081 164.271 39.4276 163.207 41.0668C162.187 42.6616 161.676 45.0538 161.676 48.2435C161.676 50.7686 162.12 52.6293 163.007 53.8254C163.894 55.0215 165.003 55.6196 166.333 55.6196Z" fill="#1EA7FD"/>
<path d="M84.625 25.8495C85.5564 26.6912 86.9535 27.112 88.8162 27.112C90.7233 27.112 92.2534 26.6026 93.4065 25.5837C94.5596 24.5205 95.1362 23.1028 95.1362 21.3308C95.1362 19.8689 94.6262 18.7392 93.6061 17.9418C92.586 17.1444 91.2555 16.7457 89.6145 16.7457C87.7961 16.7457 86.266 17.2773 85.0242 18.3405C83.8267 19.3594 83.228 20.6441 83.228 22.1947C83.228 23.7452 83.6937 24.9635 84.625 25.8495Z" fill="#1EA7FD"/>
<path fill-rule="evenodd" clip-rule="evenodd" d="M196.583 103.073C196.809 103.434 197.057 103.779 197.326 104.107C198.967 106.1 201.163 107.097 203.913 107.097C207.416 107.097 210.321 105.236 212.628 101.515C213.248 103.243 214.158 104.616 215.355 105.635C216.597 106.61 217.95 107.097 219.413 107.097C221.32 107.097 223.294 106.322 225.334 104.771C227.374 103.221 229.303 101.316 231.122 99.0564C231.362 98.7782 231.569 98.4675 231.74 98.1244C231.953 97.8613 232.162 97.596 232.368 97.3287C233.743 95.601 235.117 93.4302 236.492 90.8165C237.113 91.5253 237.778 92.367 238.488 93.3416C239.198 94.2719 239.774 95.2466 240.218 96.2655C240.706 97.2844 240.972 98.3698 241.016 99.5216L239.22 99.3222C238.466 99.1893 237.801 99.1229 237.224 99.1229C235.583 99.1229 234.341 99.5437 233.499 100.385C232.656 101.227 232.235 102.224 232.235 103.376C232.235 104.705 232.833 105.901 234.031 106.964C235.273 108.027 237.047 108.559 239.353 108.559C241.792 108.559 243.899 107.806 245.673 106.3C248.644 106.211 251.128 105.679 253.124 104.705C255.164 103.686 257.293 101.803 259.51 99.0564C259.716 98.7965 259.897 98.518 260.053 98.221C260.292 97.9263 260.527 97.6288 260.758 97.3287C262.133 95.601 263.508 93.4302 264.883 90.8165C265.504 91.5253 266.169 92.367 266.879 93.3416C267.588 94.2719 268.165 95.2466 268.608 96.2655C269.096 97.2844 269.362 98.3698 269.407 99.5216L267.61 99.3222C266.856 99.1893 266.191 99.1229 265.615 99.1229C263.974 99.1229 262.732 99.5437 261.889 100.385C261.047 101.227 260.625 102.224 260.625 103.376C260.625 104.705 261.224 105.901 262.421 106.964C263.663 108.027 265.437 108.559 267.743 108.559C270.183 108.559 272.289 107.806 274.063 106.3C277.035 106.211 279.519 105.679 281.514 104.705C282.58 104.172 283.67 103.404 284.784 102.401C285.024 102.988 285.304 103.535 285.623 104.04C286.953 106.078 289.06 107.097 291.943 107.097C294.741 107.097 297.695 105.654 300.803 102.769C301.076 103.242 301.384 103.688 301.729 104.107C303.37 106.1 305.565 107.097 308.315 107.097C311.818 107.097 314.723 105.236 317.03 101.515C317.65 103.243 318.56 104.616 319.757 105.635C320.999 106.61 322.352 107.097 323.815 107.097C325.722 107.097 327.696 106.322 329.736 104.771C331.776 103.221 333.706 101.316 335.524 99.0564C335.764 98.7782 335.971 98.4675 336.143 98.1243C336.355 97.8612 336.564 97.596 336.77 97.3287C338.145 95.601 339.519 93.4302 340.894 90.8165C341.515 91.5253 342.18 92.367 342.89 93.3416C343.6 94.2719 344.176 95.2466 344.62 96.2655C345.108 97.2844 345.374 98.3698 345.418 99.5216L343.622 99.3222C342.868 99.1893 342.203 99.1229 341.626 99.1229C339.985 99.1229 338.743 99.5437 337.901 100.385C337.058 101.227 336.637 102.224 336.637 103.376C336.637 104.705 337.235 105.901 338.433 106.964C339.675 108.027 341.449 108.559 343.755 108.559C345.751 108.559 347.525 108.049 349.077 107.031C350.629 106.012 351.827 104.683 352.669 103.043C353.556 101.36 354 99.588 354 97.7274C354 96.1769 353.623 94.7593 352.869 93.4745C352.159 92.1455 351.095 90.5507 349.676 88.6901C348.7 87.4939 347.968 86.4972 347.48 85.6998C347.037 84.9023 346.815 84.1714 346.815 83.5069C346.815 82.3993 347.214 81.0482 348.013 79.4533C348.323 78.8774 348.567 78.3015 348.744 77.7256C348.922 77.1497 349.011 76.7289 349.011 76.4631C349.011 75.9758 348.767 75.6213 348.279 75.3998C347.791 75.1783 346.926 75.0676 345.684 75.0676C343.023 75.0676 341.271 76.0422 340.429 77.9914C339.098 81.0482 338.012 83.4626 337.169 85.2346C336.371 87.0066 335.572 88.535 334.774 89.8197C333.555 91.7336 331.758 94.16 329.384 97.0989C328.98 97.5162 328.61 97.8807 328.273 98.1926C327.075 99.2558 326.055 99.7874 325.212 99.7874C324.68 99.7874 324.237 99.588 323.882 99.1893C323.571 98.7906 323.416 98.259 323.416 97.5945C323.416 95.601 323.926 92.0569 324.946 86.9623C325.611 83.4626 325.944 81.2475 325.944 80.3172C325.944 78.7667 324.857 77.9914 322.684 77.9914C321.664 77.9914 320.689 78.08 319.757 78.2572C319.535 77.2826 319.247 76.6181 318.892 76.2637C318.582 75.865 317.939 75.6656 316.963 75.6656C313.903 75.6656 310.998 76.6403 308.248 78.5895C305.543 80.4944 303.37 83.0417 301.729 86.2314C300.15 89.2573 299.331 92.4677 299.271 95.8627C298.427 96.7927 297.691 97.5472 297.065 98.1261C295.868 99.2336 294.87 99.7874 294.072 99.7874C293.229 99.7874 292.63 99.433 292.276 98.7242C291.921 98.0154 291.743 96.9964 291.743 95.6674C291.743 93.9397 292.276 90.6393 293.34 85.7662C294.183 81.7348 294.604 79.1654 294.604 78.0579C294.604 76.5517 293.473 75.7985 291.211 75.7985C289.748 75.7985 288.683 76.0643 288.018 76.596C287.353 77.1276 286.82 78.1022 286.421 79.5198C285.623 82.2221 284.958 85.146 284.425 88.2913C284.012 90.919 283.774 93.1491 283.711 94.9816C281.524 97.3877 279.572 98.9232 277.855 99.588C277.944 98.7906 277.989 98.1704 277.989 97.7274C277.989 96.1769 277.612 94.7593 276.858 93.4745C276.148 92.1455 275.084 90.5507 273.664 88.6901C272.689 87.4939 271.957 86.4972 271.469 85.6998C271.025 84.9023 270.804 84.1714 270.804 83.5069C270.804 82.3993 271.203 81.0482 272.001 79.4533C272.312 78.8774 272.556 78.3015 272.733 77.7256C272.91 77.1497 272.999 76.7289 272.999 76.4631C272.999 75.9758 272.755 75.6213 272.267 75.3998C271.779 75.1783 270.915 75.0676 269.673 75.0676C267.012 75.0676 265.26 76.0422 264.417 77.9914C263.441 80.2951 262.444 82.5323 261.423 84.703C260.403 86.8294 259.516 88.535 258.762 89.8197C257.628 91.6001 255.994 93.8239 253.861 96.4913C252.256 98.0425 250.79 99.0747 249.465 99.588C249.554 98.7906 249.598 98.1704 249.598 97.7274C249.598 96.1769 249.221 94.7593 248.467 93.4745C247.757 92.1455 246.693 90.5507 245.274 88.6901C244.298 87.4939 243.566 86.4972 243.078 85.6998C242.635 84.9023 242.413 84.1714 242.413 83.5069C242.413 82.3993 242.812 81.0482 243.611 79.4533C243.921 78.8774 244.165 78.3015 244.342 77.7256C244.52 77.1497 244.608 76.7289 244.608 76.4631C244.608 75.9758 244.365 75.6213 243.877 75.3998C243.389 75.1783 242.524 75.0676 241.282 75.0676C238.621 75.0676 236.869 76.0422 236.027 77.9914C235.051 80.2951 234.053 82.5323 233.033 84.703C232.013 86.8294 231.126 88.535 230.372 89.8197C229.153 91.7336 227.356 94.16 224.982 97.099C224.578 97.5162 224.208 97.8807 223.87 98.1926C222.673 99.2558 221.653 99.7874 220.81 99.7874C220.278 99.7874 219.835 99.588 219.48 99.1893C219.169 98.7906 219.014 98.259 219.014 97.5945C219.014 95.601 219.524 92.0569 220.544 86.9623C221.209 83.4626 221.542 81.2475 221.542 80.3172C221.542 78.7667 220.455 77.9914 218.282 77.9914C217.262 77.9914 216.286 78.08 215.355 78.2572C215.133 77.2826 214.845 76.6181 214.49 76.2637C214.18 75.865 213.537 75.6656 212.561 75.6656C209.501 75.6656 206.596 76.6403 203.846 78.5895C201.141 80.4944 198.967 83.0417 197.326 86.2314C195.686 89.3767 194.865 92.7214 194.865 96.2655C194.865 96.3242 194.865 96.3828 194.866 96.4412C194.119 97.1874 193.444 97.7933 192.842 98.259C191.467 99.2779 189.871 99.7874 188.052 99.7874C186.899 99.7874 185.968 99.4108 185.258 98.6577C184.549 97.8603 184.039 96.5534 183.728 94.7371C188.74 87.9148 192.709 81.026 195.636 74.0708C195.942 73.3451 196.231 72.6286 196.505 71.9213C196.653 71.9079 196.8 71.8944 196.947 71.8808C201.525 71.4558 205.662 70.8889 208.955 70.0741C210.602 69.6666 212.146 69.1715 213.473 68.5458C214.757 67.9399 216.121 67.081 217.096 65.7984C219.053 63.2229 219.328 60.2342 218.291 57.4859C217.334 54.9512 215.352 52.7999 213.084 51.0834C208.508 47.6202 201.597 45.0326 194.162 44.318C193.95 44.2976 193.74 44.2955 193.535 44.3105C193.416 44.304 193.296 44.3007 193.175 44.3007C189.405 44.3007 186.145 46.7816 183.395 51.7432C181.22 55.7331 179.46 60.3532 178.116 65.6035C175.103 65.7236 172.009 65.8325 168.882 65.9427L168.875 65.943C167.471 65.9924 166.061 66.0421 164.648 66.0931C153.297 66.5031 141.772 67.0006 132.661 68.1971C128.116 68.7939 123.993 69.5859 120.721 70.6985C117.68 71.7323 114.39 73.3568 112.868 76.2888C112.093 77.7834 111.687 79.3994 111.829 81.0674C111.972 82.7403 112.643 84.1804 113.559 85.3558C115.294 87.5836 118.022 89.0193 120.609 89.9714C125.889 91.9143 132.767 92.6198 137.654 92.2848C139.69 92.1452 141.228 90.383 141.088 88.3489C140.948 86.3148 139.184 84.779 137.148 84.9187C133.128 85.1943 127.315 84.5708 123.164 83.0431C121.036 82.2599 119.862 81.4249 119.392 80.8214C119.207 80.583 119.197 80.4666 119.194 80.4391C119.192 80.408 119.174 80.1815 119.431 79.6872C119.526 79.5043 120.278 78.6484 123.103 77.6881C125.696 76.8065 129.261 76.0906 133.625 75.5176C142.331 74.3742 153.505 73.8839 164.915 73.4718C166.319 73.4211 167.726 73.3715 169.133 73.3221C171.622 73.2345 174.107 73.147 176.56 73.0535C175.617 78.5603 175.146 83.551 175.146 88.0255C175.146 89.64 175.223 91.1688 175.376 92.6118C172.228 94.6494 168.947 96.9969 165.532 99.6545C165.754 98.2369 165.953 96.9078 166.131 95.6674C166.353 94.3827 166.552 93.2087 166.73 92.1455C167.661 86.5636 168.215 83.086 168.393 81.7127C168.437 81.4026 168.459 80.9817 168.459 80.4501C168.459 79.4755 168.215 78.8331 167.727 78.523C167.284 78.1686 166.508 77.9914 165.399 77.9914C164.29 77.9914 163.315 78.08 162.472 78.2572C162.25 77.2826 161.962 76.6181 161.607 76.2637C161.297 75.865 160.654 75.6656 159.678 75.6656C156.618 75.6656 153.713 76.6403 150.963 78.5895C148.257 80.4944 146.084 83.0417 144.443 86.2314C142.802 89.3767 141.982 92.7214 141.982 96.2655C141.982 99.4994 142.802 102.113 144.443 104.107C146.084 106.1 148.28 107.097 151.029 107.097C152.227 107.097 153.424 106.787 154.622 106.167C155.864 105.502 156.862 104.572 157.616 103.376L157.216 105.967C150.386 111.239 145.729 115.669 143.246 119.258C140.762 122.89 139.52 126.279 139.52 129.425C139.52 131.684 140.23 133.5 141.649 134.874C143.068 136.291 144.909 137 147.171 137C151.384 137 154.844 134.364 157.549 129.092C160.299 123.865 162.516 116.666 164.202 107.496L168.459 104.638C170.218 103.409 172.978 101.527 176.74 98.9919C177.084 99.9839 177.484 100.914 177.94 101.781C179.847 105.325 182.752 107.097 186.655 107.097C189.494 107.097 192.022 106.344 194.239 104.838C195.043 104.302 195.824 103.714 196.583 103.073ZM184.419 72.7178C183.722 77.2227 183.337 81.5722 183.262 85.7662C185.967 81.3152 188.196 76.8641 189.952 72.4131C188.158 72.5252 186.309 72.6257 184.419 72.7178ZM198.932 64.2572C202.211 63.8909 204.993 63.4479 207.178 62.9072C208.556 62.5663 209.59 62.2121 210.316 61.8692C210.945 61.573 211.171 61.3658 211.209 61.3309C211.213 61.3273 211.215 61.3255 211.215 61.3256L211.214 61.3275C211.531 60.907 211.572 60.6149 211.374 60.0903C211.095 59.3492 210.287 58.2303 208.62 56.9686C206.478 55.3475 203.436 53.6035 199.83 52.4146C199.961 53.4283 200.027 54.5336 200.027 55.7303C200.027 58.3627 199.662 61.205 198.932 64.2572ZM192.406 64.847C190.302 65.0012 188.097 65.135 185.815 65.2546C186.554 61.8809 187.366 58.9277 188.252 56.3948C189.538 52.7179 190.691 50.8794 191.711 50.8794C192.953 50.8794 193.574 52.5628 193.574 55.9297C193.574 58.7077 193.185 61.6802 192.406 64.847ZM153.424 100.385C154.444 100.385 155.42 99.7652 156.352 98.5248C157.283 97.2844 157.948 95.5124 158.347 93.2087L160.476 81.8456C158.658 81.8899 156.972 82.5987 155.42 83.972C153.868 85.3011 152.626 87.0731 151.695 89.2881C150.763 91.5031 150.298 93.8511 150.298 96.3319C150.298 97.7053 150.564 98.7242 151.096 99.3887C151.672 100.053 152.449 100.385 153.424 100.385ZM147.903 130.554C149.011 130.554 150.253 129.225 151.628 126.567C153.047 123.909 154.4 119.678 155.686 113.875C152.271 116.799 149.81 119.435 148.302 121.783C146.794 124.131 146.04 126.191 146.04 127.963C146.04 128.716 146.173 129.336 146.439 129.823C146.75 130.311 147.237 130.554 147.903 130.554ZM209.102 98.6577C208.215 99.8095 207.283 100.385 206.308 100.385C205.332 100.385 204.556 100.053 203.979 99.3887C203.447 98.7242 203.181 97.7053 203.181 96.3319C203.181 93.8511 203.646 91.5031 204.578 89.2881C205.509 87.0731 206.751 85.3011 208.303 83.972C209.9 82.5987 211.63 81.8899 213.492 81.8456L211.031 94.0726C210.632 95.9775 209.989 97.5059 209.102 98.6577ZM313.504 98.6577C312.617 99.8095 311.685 100.385 310.71 100.385C309.734 100.385 308.958 100.053 308.381 99.3887C307.849 98.7242 307.583 97.7053 307.583 96.3319C307.583 93.8511 308.049 91.5031 308.98 89.2881C309.911 87.0731 311.153 85.3011 312.705 83.972C314.302 82.5987 316.032 81.8899 317.894 81.8456L315.433 94.0726C315.034 95.9775 314.391 97.5059 313.504 98.6577Z" fill="#1EA7FD"/>
<path d="M292.475 71.4128C290.612 71.4128 289.215 70.9919 288.284 70.1502C287.353 69.2642 286.887 68.0459 286.887 66.4954C286.887 64.9449 287.486 63.6601 288.683 62.6412C289.925 61.578 291.455 61.0464 293.273 61.0464C294.914 61.0464 296.245 61.4451 297.265 62.2425C298.285 63.0399 298.795 64.1696 298.795 65.6315C298.795 67.4036 298.219 68.8212 297.065 69.8844C295.912 70.9033 294.382 71.4128 292.475 71.4128Z" fill="#1EA7FD"/>
</svg>
